<svg xmlns="http://www.w3.org/2000/svg" xmlns:xlink="http://www.w3.org/1999/xlink" width="887.168" height="215.314" viewBox="0 0 887.168 215.314">
  <defs>
    <linearGradient id="linear-gradient" y1="0.168" x2="0.993" y2="0.175" gradientUnits="objectBoundingBox">
      <stop offset="0" stop-color="#d2ac47"/>
      <stop offset="0.368" stop-color="#f7cf8a"/>
      <stop offset="0.661" stop-color="#ae8625"/>
      <stop offset="1" stop-color="#edc967"/>
    </linearGradient>
  </defs>
  <g id="Group_169" data-name="Group 169" transform="translate(-273.629 -511)">
    <path id="Union_7" data-name="Union 7" d="M281.495,113.375a11.622,11.622,0,0,1-2.832-.98,18.058,18.058,0,0,1-1.81-1.051,12.256,12.256,0,0,1-1.154-.89l1.355-2.144a12.008,12.008,0,0,0,7.888,2.953,7.139,7.139,0,0,0,4.905-1.537,5.366,5.366,0,0,0,1.729-4.23,5.761,5.761,0,0,0-.506-2.61,4.407,4.407,0,0,0-1.789-1.74,17.133,17.133,0,0,0-3.752-1.456c-.054-.013-.264-.071-.617-.171s-.739-.2-1.146-.3-.617-.159-.647-.176a20.374,20.374,0,0,1-3.266-1.183,9.2,9.2,0,0,1-2.326-1.578,5.63,5.63,0,0,1-1.467-2.246,9.124,9.124,0,0,1-.464-3.064,6.7,6.7,0,0,1,2.568-5.6,10.889,10.889,0,0,1,6.874-2,17.051,17.051,0,0,1,2.892.234,14.6,14.6,0,0,1,2.185.516,9.05,9.05,0,0,1,1.629.748,9.241,9.241,0,0,1,1.092.705q.293.242.717.627l-1.437,2.063a8.689,8.689,0,0,0-2.669-1.668,10.587,10.587,0,0,0-4.186-.739,7.833,7.833,0,0,0-4.783,1.3,4.373,4.373,0,0,0-1.749,3.731,5.023,5.023,0,0,0,1.031,3.5,9.208,9.208,0,0,0,4.106,1.981q.1.041,1.193.334t1.173.313q1.012.283,1.851.567t1.567.6q.728.313,1.315.637a9.148,9.148,0,0,1,1.072.687,6.831,6.831,0,0,1,.86.758,5.489,5.489,0,0,1,.657.839,6.348,6.348,0,0,1,.486.92,5.849,5.849,0,0,1,.323,1.021,8.745,8.745,0,0,1,.176,1.122q.05.577.05,1.265A7.579,7.579,0,0,1,292,111.553a10.47,10.47,0,0,1-6.977,2.185A16.062,16.062,0,0,1,281.495,113.375Zm-168.237-2.568q-2.791-2.943-2.791-8.342V83.878h3.014v18.708q0,8.676,8.434,8.676a8.491,8.491,0,0,0,6.271-2.164q2.164-2.165,2.164-6.471V83.878h3.013v18.567q-.041,5.421-2.862,8.364t-8.606,2.943q-5.841,0-8.633-2.944ZM69.91,109.788q-3.9-3.966-3.9-10.719a17.485,17.485,0,0,1,1.86-8.2,13.35,13.35,0,0,1,5.278-5.532,15.523,15.523,0,0,1,7.867-1.963,15.706,15.706,0,0,1,9.59,2.952l-1.254,2.124a14.621,14.621,0,0,0-8.293-2.589,11.092,11.092,0,0,0-8.666,3.63,13.657,13.657,0,0,0-3.266,9.5q0,5.623,3.085,8.95t8.646,3.328a19.2,19.2,0,0,0,7.4-1.234V100.7H80.414V98.177H91.167v13.49a24.289,24.289,0,0,1-10.4,2.083Q73.814,113.754,69.91,109.788Zm473.824,3.54V83.878h7.4q8.171,0,12.459,3.731t4.288,11.174q0,7.059-4.065,10.8t-11.81,3.742Zm3.013-2.508h5.376q6.21,0,9.4-3.1t3.2-8.939q0-12.4-13.409-12.4h-4.571Zm-39.932,2.508V83.878h17.009v2.508h-14V96.9h13.206v2.508H509.827v11.408h14.6v2.508Zm-29.618,0V86.385h-9.606V83.878h22.288v2.508h-9.649v26.94Zm-29.638,0V83.878h3.034v29.448Zm-24.278,0V88.813l-1.254,3.115-9.626,21.4h-2.027l-9.382-21.318-1.436-3.681v25h-2.908V83.878h3.736l4.723,10.84q4.176,9.587,6.3,14.684,2.165-5.1,6.434-14.653t4.853-10.871h3.479v29.448Zm-50.793,0V83.878h3.033v29.448Zm-34.553,0V83.878h3.013v26.94H354.68v2.508Zm-104.063,0V83.878h7.4q8.171,0,12.459,3.731t4.288,11.174q0,7.059-4.066,10.8t-11.809,3.742Zm3.013-2.508h5.376q6.21,0,9.4-3.1t3.2-8.939q0-12.4-13.409-12.4h-4.568Zm-24.845,2.508-3.076-8.457q-.384-1.072-.667-1.719a11.021,11.021,0,0,0-.647-1.254,4.156,4.156,0,0,0-.718-.931,3.6,3.6,0,0,0-.881-.576,3.771,3.771,0,0,0-1.162-.334,12.342,12.342,0,0,0-1.526-.081h-6.553v13.349h-3.013V83.878h9.1a20.133,20.133,0,0,1,4.217.384,8.861,8.861,0,0,1,3.094,1.274,5.427,5.427,0,0,1,1.982,2.407,9.232,9.232,0,0,1,.657,3.681,7.779,7.779,0,0,1-1.477,4.865,6.434,6.434,0,0,1-4.407,2.356,6.346,6.346,0,0,1,1.506.536,5.414,5.414,0,0,1,1.092.739,4.449,4.449,0,0,1,.87,1.132,12.944,12.944,0,0,1,.7,1.406q.283.677.728,1.871l3.261,8.8ZM196.83,97.492h6.33a7.547,7.547,0,0,0,4.945-1.4,5.35,5.35,0,0,0,1.669-4.348,7.29,7.29,0,0,0-.375-2.5,3.732,3.732,0,0,0-1.162-1.659,4.908,4.908,0,0,0-1.952-.92,11.986,11.986,0,0,0-2.8-.283h-6.654Zm-24.016,15.836-2.953-7.969H156.734l-2.932,7.969h-3.317l11.064-29.451h3.418l11.1,29.448ZM160.035,95.975q-2.1,5.987-2.487,7.059H169q-2.852-8.171-5.744-16.221-1.118,3.173-3.222,9.159ZM540.974,45.731a20.237,20.237,0,0,1-8.339-8.54A27.6,27.6,0,0,1,529.721,24.2a26.951,26.951,0,0,1,2.946-12.928A20.6,20.6,0,0,1,541.008,2.8a28.515,28.515,0,0,1,25.382,0,20.182,20.182,0,0,1,8.271,8.473A27.463,27.463,0,0,1,577.542,24.2a27.868,27.868,0,0,1-2.881,12.994,20.088,20.088,0,0,1-8.271,8.54,28.586,28.586,0,0,1-25.419,0Zm4.354-32.585q-3.015,3.75-3.014,11.052,0,7.369,3.014,11.152a11.158,11.158,0,0,0,16.775-.032Q565.151,31.5,565.15,24.2q0-7.234-3.048-11.016a11.223,11.223,0,0,0-16.778-.033ZM439,45.764a20.686,20.686,0,0,1-8.808-8.473A26.472,26.472,0,0,1,427.106,24.2,26.042,26.042,0,0,1,430.19,11.3,21.032,21.032,0,0,1,438.9,2.8,27.641,27.641,0,0,1,452.027-.184a34.6,34.6,0,0,1,9.745,1.34,21.041,21.041,0,0,1,7.468,3.684l-3.952,8.908a26.281,26.281,0,0,0-6.33-3.115,21.4,21.4,0,0,0-6.531-.969q-6.363,0-9.478,3.583T439.836,24.2q0,7.636,3.249,11.32T453.1,39.2a30.179,30.179,0,0,0,6.3-.671V29.689h-8.306V21.183h19.623V45.095a38.714,38.714,0,0,1-8.54,2.678,49.518,49.518,0,0,1-9.677.94,29.132,29.132,0,0,1-13.5-2.95Zm183.224,2.344-.067-21.835-9.042,21.835h-7.971l-9.109-21.566V48.109H585.114V.418h9.846l14.267,32.553L623.426.418h9.782V48.109Zm-143.537,0V.418h19.491a30.307,30.307,0,0,1,13.63,2.847,20.149,20.149,0,0,1,8.775,8.206A25.325,25.325,0,0,1,523.629,24.2a25.887,25.887,0,0,1-3.014,12.827,19.9,19.9,0,0,1-8.741,8.238,30.485,30.485,0,0,1-13.7,2.847Zm12.591-10.047H497.3q6.962,0,10.415-3.449T511.169,24.2q0-13.731-13.865-13.731h-6.028ZM410.43,48.109,388.8,21.053V48.109H377.074V.418h9.176l21.634,26.926V.418h11.854V48.109Zm-54.521,0V.418H368.5V48.109Zm-15.606,0L321.215,26.474V48.109H308.623V.418h12.592v20.5L339.768.418H354.5l-21.1,22.64,21.834,25.051Zm-91.561,0V.418h34.026v9.646H261V19.04h20.358v9.645H261v9.783h21.768v9.641Zm-32.017,0V10.6h-14.2V.418h41.125V10.6h-14.2V48.109Zm-31.881,0V.418h12.591V48.109Zm-17.95,0L145.258,21.053V48.109H133.537V.418h9.178l21.634,26.926V.418H176.2V48.109Zm-54.521,0V.418h12.594V48.109Zm-39.116,0V.418h33.29v9.848h-20.9v8.706h19.558v9.783H85.649V48.109Zm-17.95,0L33.671,21.048V48.1H21.949V.418h9.178L52.762,27.345V.418H64.617V48.109Zm-54.521,0V.418H13.378V48.109Z" transform="translate(527.588 562.3)"/>
    <path id="Union_30" data-name="Union 30" d="M2.381,53.707C1.223,47.009.487,41.081,0,36.119,26.851,13.888,65.064,0,107.462,0c42.417,0,80.629,13.888,107.462,36.119-.487,4.962-1.222,10.889-2.381,17.588A245.134,245.134,0,0,1,107.462,215.314,245.141,245.141,0,0,1,2.381,53.707ZM13.811,43.32a244.7,244.7,0,0,0,93.651,156.159,247.117,247.117,0,0,0,60.717-67.094h.018A243.993,243.993,0,0,0,201.148,43.32C177.4,24.435,144.207,12.706,107.48,12.706S37.563,24.435,13.811,43.32Zm64.331,111.3c-20.513-19.644-25.52-47.289-12.772-64.672a33.957,33.957,0,0,1,3.942-4.5c.309-.3.619-.589.941-.868a44.306,44.306,0,0,1,13.695-7.63,73,73,0,0,1,47.183,0,44.306,44.306,0,0,1,13.695,7.63c.345.3.632.571.941.868a33.858,33.858,0,0,1,3.882,4.5c12.748,17.383,7.711,45.027-12.772,64.672a68.967,68.967,0,0,1-29.366,16.892A69,69,0,0,1,78.141,154.623Zm4.8-63.36a18.09,18.09,0,0,0-12.873,17.083c0,.4.042.793.042,1.182a36.712,36.712,0,0,0,.179,5.711c1.12,10.422,6.513,21.443,15.862,30.408a56.626,56.626,0,0,0,21.435,13.026,56.617,56.617,0,0,0,21.435-13.026c9.349-8.965,14.743-19.969,15.863-30.408a36.723,36.723,0,0,0,.2-5.711,11.112,11.112,0,0,0,.042-1.182,18.079,18.079,0,0,0-12.87-17.093A19.23,19.23,0,0,0,111.3,97.6l-.143.189c-.1.137-.2.274-.3.417l-.309.411-.143.177a3.908,3.908,0,0,1-2.77,1.086h-.059A3.908,3.908,0,0,1,104.8,98.8l-.143-.177-.31-.411-.3-.417L103.9,97.6A19.055,19.055,0,0,0,88.841,90.35a19.491,19.491,0,0,0-5.9.915Zm29.011,33.264a16.088,16.088,0,0,1,1.05-6.285c2.38-6.242,8.032-9,9.449-9.664a21.756,21.756,0,0,1,15.728-.725,18.808,18.808,0,0,1-6.386,12.378,19.725,19.725,0,0,1-9.449,4.365l-10.392,24.564ZM100.86,135.064c-2.278-7.047-5.324-9.44-7.78-10.276-.206-.069-.4-.123-.6-.176l-.267-.051c-.266-.063-.544-.123-.822-.171a19.5,19.5,0,0,1-8.338-4.147,16.818,16.818,0,0,1-1.45-1.392l-.145-.176a19.013,19.013,0,0,1-4.79-10.826,21.63,21.63,0,0,1,15.682.725c1.417.666,7.076,3.432,9.488,9.664a16.089,16.089,0,0,1,1.05,6.285v15.686ZM119.52,67.158c-4.245-.3-8.273-.417-12.069-.417s-7.824.12-12.069.417c-5.966.411-11.486,1.107-16.517,1.941L62.643,34.983l.388-.1L83.4,45.038a8.647,8.647,0,0,0,2.916,9.132,9.557,9.557,0,0,0,9.867,1.292,8.726,8.726,0,0,0,.02-16.094L107.236,23.5v-.623l.215.308.215-.308v.623L118.7,39.383a8.723,8.723,0,0,0-4.677,11.331,9.364,9.364,0,0,0,11.542,5.1A8.8,8.8,0,0,0,131.5,45.037l20.37-10.16.387.1-16.22,34.114c-5.033-.832-10.563-1.527-16.518-1.937Z" transform="translate(273.629 511)" fill="url(#linear-gradient)"/>
  </g>
</svg>
